<?xml version="1.0" standalone="no"?>
<!DOCTYPE svg PUBLIC "-//W3C//DTD SVG 1.1//EN" "http://www.w3.org/Graphics/SVG/1.1/DTD/svg11.dtd" >
<svg xmlns="http://www.w3.org/2000/svg" xmlns:xlink="http://www.w3.org/1999/xlink" version="1.1">
<metadata>
Created by FontForge 20161013 at Mon Aug 16 04:29:55 1999
 By ,,,
Created by ShyWedge, 1999.  (http://welcome.to/ShyFonts)
</metadata>
<defs>
<font id="SFDistantGalaxy" horiz-adv-x="900" >
  <font-face 
    font-family="SF Distant Galaxy"
    font-weight="400"
    font-stretch="normal"
    units-per-em="1200"
    panose-1="0 0 4 0 0 0 0 0 0 0"
    ascent="1000"
    descent="-200"
    x-height="800"
    cap-height="800"
    bbox="-150 -200 1415 1000"
    underline-thickness="20"
    underline-position="-163"
    unicode-range="U+0020-2122"
  />
<missing-glyph horiz-adv-x="600" 
d="M75 0v1000h450v-1000h-450zM150 75h300v850h-300v-850z" />
    <glyph glyph-name=".notdef" horiz-adv-x="600" 
d="M75 0v1000h450v-1000h-450zM150 75h300v850h-300v-850z" />
    <glyph glyph-name=".null" horiz-adv-x="0" 
 />
    <glyph glyph-name="nonmarkingreturn" horiz-adv-x="450" 
 />
    <glyph glyph-name="space" unicode=" " horiz-adv-x="450" 
 />
    <glyph glyph-name="exclam" unicode="!" horiz-adv-x="250" 
d="M225 800l-20 -550h-160l-20 550h200zM225 100q0 -41 -29.5 -70.5t-70.5 -29.5t-70.5 29.5t-29.5 70.5t29.5 70.5t70.5 29.5t70.5 -29.5t29.5 -70.5z" />
    <glyph glyph-name="quotedbl" unicode="&#x22;" horiz-adv-x="500" 
d="M475 700q0 -35 -15 -75.5t-44 -77.5q-37 -45 -71 -47l30 100q-41 0 -70.5 29.5t-29.5 70.5q0 40 30 70t70 30t70 -30t30 -70zM225 700q0 -35 -15 -75.5t-44 -77.5q-37 -45 -71 -47l30 100q-41 0 -70.5 29.5t-29.5 70.5q0 40 30 70t70 30t70 -30t30 -70z" />
    <glyph glyph-name="numbersign" unicode="#" horiz-adv-x="799" 
d="M774 675l-26 -150h-125l-22 -125h125l-26 -150h-125l-23 -125h-150l23 125h-125l-23 -125h-150l23 125h-125l26 150h125l22 125h-125l26 150h125l23 125h150l-23 -125h125l23 125h150l-23 -125h125zM473 525h-125l-22 -125h125z" />
    <glyph glyph-name="dollar" unicode="$" horiz-adv-x="850" 
d="M825 550h-318q-20 0 -20 -23q0 -6 3 -8l145 -109q90 -68 90 -182q0 -81 -61 -145q-57 -61 -139 -78v-105h-200v100h-300v250h297q20 0 20 24q0 5 -3 7l-135 99q-79 58 -79 177q0 84 58.5 152t141.5 86v105h200v-100h300v-250z" />
    <glyph glyph-name="percent" unicode="%" horiz-adv-x="1012" 
d="M987 200q0 -80 -60 -140t-140 -60t-140 60t-60 140t60 140t140 60t140 -60t60 -140zM737 742l-274 -752l-188 68l274 752zM425 600q0 -80 -60 -140t-140 -60t-140 60t-60 140t60 140t140 60t140 -60t60 -140zM862 200q0 30 -22.5 52.5t-52.5 22.5t-52.5 -22.5
t-22.5 -52.5t22.5 -52.5t52.5 -22.5t52.5 22.5t22.5 52.5zM300 600q0 30 -22.5 52.5t-52.5 22.5t-52.5 -22.5t-22.5 -52.5t22.5 -52.5t52.5 -22.5t52.5 22.5t22.5 52.5z" />
    <glyph glyph-name="ampersand" unicode="&#x26;" horiz-adv-x="850" 
d="M825 0h-550q-102 0 -176 73.5t-74 175.5q0 85 50 151q-50 65 -50 147q0 104 73 178.5t177 74.5h550v-230h-500q-30 0 -30 -35q0 -30 30 -30h150v-210h-150q-30 0 -30 -33q0 -32 30 -32h246v150h254v-380z" />
    <glyph glyph-name="quotesingle" unicode="'" horiz-adv-x="250" 
d="M225 700q0 -35 -15 -75.5t-44 -77.5q-37 -45 -71 -47l30 100q-41 0 -70.5 29.5t-29.5 70.5q0 40 30 70t70 30t70 -30t30 -70z" />
    <glyph glyph-name="parenleft" unicode="(" horiz-adv-x="350" 
d="M325 -100h-150q-150 216 -150 500t150 500h150q-100 -235 -100 -500t100 -500z" />
    <glyph glyph-name="parenright" unicode=")" horiz-adv-x="350" 
d="M325 400q0 -284 -150 -500h-150q100 235 100 500t-100 500h150q150 -217 150 -500z" />
    <glyph glyph-name="asterisk" unicode="*" horiz-adv-x="456" 
d="M431 532l-60 -104l-83 48v-96h-120v96l-83 -48l-60 104l83 48l-83 48l60 104l83 -48v96h120v-96l83 48l60 -104l-83 -48z" />
    <glyph glyph-name="plus" unicode="+" horiz-adv-x="450" 
d="M425 325h-125v-125h-150v125h-125v150h125v125h150v-125h125v-150z" />
    <glyph glyph-name="comma" unicode="," horiz-adv-x="250" 
d="M225 100q0 -35 -15 -75.5t-44 -77.5q-37 -45 -71 -47l30 100q-41 0 -70.5 29.5t-29.5 70.5q0 40 30 70t70 30t70 -30t30 -70z" />
    <glyph glyph-name="hyphen" unicode="-" horiz-adv-x="450" 
d="M425 325h-400v150h400v-150z" />
    <glyph glyph-name="hyphen" unicode="&#x2010;" horiz-adv-x="450" 
d="M425 325h-400v150h400v-150z" />
    <glyph glyph-name="period" unicode="." horiz-adv-x="250" 
d="M225 100q0 -41 -29.5 -70.5t-70.5 -29.5t-70.5 29.5t-29.5 70.5t29.5 70.5t70.5 29.5t70.5 -29.5t29.5 -70.5z" />
    <glyph glyph-name="slash" unicode="/" horiz-adv-x="530" 
d="M530 836l-342 -940l-188 68l342 940z" />
    <glyph glyph-name="zero" unicode="0" 
d="M875 400q0 -168 -130 -286q-125 -114 -295 -114t-295 114q-130 118 -130 286t130 286q125 114 295 114t295 -114q130 -118 130 -286zM605 400q0 61 -47 105.5t-108 44.5q-62 0 -108.5 -44.5t-46.5 -105.5t46.5 -105.5t108.5 -44.5t108.5 44.5t46.5 105.5z" />
    <glyph glyph-name="one" unicode="1" horiz-adv-x="430" 
d="M405 0h-280v570h-100l100 230h280v-800z" />
    <glyph glyph-name="two" unicode="2" 
d="M875 0h-850v253q0 99 75.5 175.5t174.5 76.5h300q30 0 30 30q0 35 -30 35h-500v230h550q100 0 175 -76.5t75 -176.5q0 -99 -75.5 -175.5t-174.5 -76.5h-300q-22 0 -28 -24q-2 -9 -2 -41h580v-230z" />
    <glyph glyph-name="three" unicode="3" horiz-adv-x="850" 
d="M825 249q0 -102 -74 -175.5t-176 -73.5h-550v230h500q30 0 30 32q0 33 -30 33h-300v210h300q30 0 30 30q0 35 -30 35h-500v230h550q104 0 177 -74.5t73 -178.5q0 -81 -50 -147q50 -66 50 -151z" />
    <glyph glyph-name="four" unicode="4" 
d="M875 150h-50v-150h-280v150h-520l100 550h290l-55 -300h185v400h280v-400h50v-250z" />
    <glyph glyph-name="five" unicode="5" 
d="M875 253q0 -100 -75 -176.5t-175 -76.5h-600v230h550q30 0 30 35q0 30 -30 30h-550v505h800v-230h-530v-65h330q99 0 174.5 -76.5t75.5 -175.5z" />
    <glyph glyph-name="six" unicode="6" 
d="M875 253q0 -100 -75 -176.5t-175 -76.5h-350q-99 0 -174.5 76t-75.5 176v298q0 99 75.5 174.5t174.5 75.5h550v-230h-500q-30 0 -30 -30q0 -35 30 -35h300q99 0 174.5 -76.5t75.5 -175.5zM605 265q0 30 -30 30h-250q-30 0 -30 -30q0 -35 30 -35h250q30 0 30 35z" />
    <glyph glyph-name="seven" unicode="7" 
d="M875 800l-530 -800h-320l378 570h-378v230h850z" />
    <glyph glyph-name="eight" unicode="8" 
d="M875 232q0 -95 -76.5 -163.5t-173.5 -68.5h-350q-97 0 -172 67q-78 70 -78 166q0 110 88 181q-68 67 -68 163q0 93 80 160q75 63 170 63h310q97 0 172 -64q78 -67 78 -162q0 -93 -68 -160q88 -70 88 -182zM585 535q0 35 -30 35h-210q-30 0 -30 -35q0 -30 30 -30h210
q30 0 30 30zM605 260q0 35 -30 35h-250q-30 0 -30 -35q0 -30 30 -30h250q30 0 30 30z" />
    <glyph glyph-name="nine" unicode="9" 
d="M875 250q0 -99 -75.5 -174.5t-174.5 -75.5h-550v230h500q30 0 30 30q0 35 -30 35h-300q-99 0 -174.5 76.5t-75.5 175.5q0 100 75 176.5t175 76.5h350q100 0 175 -76t75 -176v-298zM605 535q0 35 -30 35h-250q-30 0 -30 -35q0 -30 30 -30h250q30 0 30 30z" />
    <glyph glyph-name="colon" unicode=":" horiz-adv-x="250" 
d="M225 500q0 -41 -29.5 -70.5t-70.5 -29.5t-70.5 29.5t-29.5 70.5t29.5 70.5t70.5 29.5t70.5 -29.5t29.5 -70.5zM225 100q0 -41 -29.5 -70.5t-70.5 -29.5t-70.5 29.5t-29.5 70.5t29.5 70.5t70.5 29.5t70.5 -29.5t29.5 -70.5z" />
    <glyph glyph-name="semicolon" unicode=";" horiz-adv-x="250" 
d="M225 500q0 -41 -29.5 -70.5t-70.5 -29.5t-70.5 29.5t-29.5 70.5t29.5 70.5t70.5 29.5t70.5 -29.5t29.5 -70.5zM225 100q0 -35 -15 -75.5t-44 -77.5q-37 -45 -71 -47l30 100q-41 0 -70.5 29.5t-29.5 70.5q0 40 30 70t70 30t70 -30t30 -70z" />
    <glyph glyph-name="less" unicode="&#x3c;" horiz-adv-x="350" 
d="M325 150h-200l-100 250l100 250h200l-100 -250z" />
    <glyph glyph-name="equal" unicode="=" horiz-adv-x="550" 
d="M525 425h-500v150h500v-150zM525 225h-500v150h500v-150z" />
    <glyph glyph-name="greater" unicode="&#x3e;" horiz-adv-x="350" 
d="M325 400l-100 -250h-200l100 250l-100 250h200z" />
    <glyph glyph-name="question" unicode="?" horiz-adv-x="750" 
d="M725 547q0 -99 -75.5 -175.5t-174.5 -76.5h-210q-42 0 -40 -65h-200v23q0 99 75.5 175.5t174.5 76.5h150q30 0 30 30q0 35 -30 35h-400v230h450q100 0 175 -76.5t75 -176.5zM225 100q0 -41 -29.5 -70.5t-70.5 -29.5t-70.5 29.5t-29.5 70.5t29.5 70.5t70.5 29.5
t70.5 -29.5t29.5 -70.5z" />
    <glyph glyph-name="at" unicode="@" horiz-adv-x="730" 
d="M705 400q0 -139 -100.5 -239.5t-239.5 -100.5t-239.5 100.5t-100.5 239.5t100.5 239.5t239.5 100.5q138 0 239 -101t101 -239zM605 400q0 97 -71.5 168.5t-168.5 71.5t-168.5 -71.5t-71.5 -168.5t71.5 -168.5t168.5 -71.5t168.5 71.5t71.5 168.5zM537 250h-120l-9 37h-86
l-10 -37h-120l79 300h188zM390 355l-25 95l-25 -95h50z" />
    <glyph glyph-name="A" unicode="A" horiz-adv-x="950" 
d="M925 0h-310l-26 100h-228l-26 -100h-310l210 800h480zM536 300l-61 233l-61 -233h122z" />
    <glyph glyph-name="B" unicode="B" 
d="M875 233q0 -103 -91 -171q-83 -62 -189 -62h-570v800h520q107 0 190 -63q90 -69 90 -172q0 -80 -49 -142q99 -67 99 -190zM565 540q0 24 -18 42t-42 18h-200v-120h200q24 0 42 18t18 42zM575 260q0 24 -18 42t-42 18h-210v-120h210q24 0 42 18t18 42z" />
    <glyph glyph-name="C" unicode="C" horiz-adv-x="800" 
d="M775 0h-325q-170 0 -295 114q-130 118 -130 286t130 286q125 114 295 114h325v-250h-325q-61 0 -108 -44.5t-47 -105.5t46.5 -105.5t108.5 -44.5h325v-250z" />
    <glyph glyph-name="D" unicode="D" 
d="M875 400q0 -168 -130 -286q-125 -114 -295 -114h-425v800h425q170 0 295 -114q130 -118 130 -286zM605 400q0 61 -47 105.5t-108 44.5h-145v-300h145q62 0 108.5 44.5t46.5 105.5z" />
    <glyph glyph-name="E" unicode="E" horiz-adv-x="850" 
d="M825 0h-800v800h800v-250h-500v-45h300v-210h-300v-45h500v-250z" />
    <glyph glyph-name="F" unicode="F" horiz-adv-x="850" 
d="M825 550h-500v-45h300v-210h-300v-295h-300v800h800v-250z" />
    <glyph glyph-name="G" unicode="G" 
d="M875 0h-425q-170 0 -295 114q-130 118 -130 286t130 286q125 114 295 114q165 0 291 -109l-183 -183q-48 42 -108 42q-61 0 -108 -44.5t-47 -105.5t46.5 -105.5t108.5 -44.5h125v150h300v-400z" />
    <glyph glyph-name="H" unicode="H" 
d="M875 0h-300v295h-250v-295h-300v800h300v-295h250v295h300v-800z" />
    <glyph glyph-name="I" unicode="I" horiz-adv-x="350" 
d="M325 0h-300v800h300v-800z" />
    <glyph glyph-name="J" unicode="J" horiz-adv-x="525" 
d="M500 50q0 -163 -143 -217q-85 -33 -282 -33l-50 250q98 0 131 9q74 20 74 91v650h270v-750z" />
    <glyph glyph-name="K" unicode="K" 
d="M875 0h-210q-100 0 -200 100l-140 140v-240h-300v800h300v-262l184 262h366l-292 -418l120 -120q12 -12 49 -12h123v-250z" />
    <glyph glyph-name="L" unicode="L" horiz-adv-x="800" 
d="M775 0h-750v800h300v-550h450v-250z" />
    <glyph glyph-name="M" unicode="M" horiz-adv-x="1000" 
d="M975 0h-300v250l-175 -250l-175 250v-250h-300v800h300l175 -250l175 250h300v-800z" />
    <glyph glyph-name="N" unicode="N" 
d="M875 0h-300q-5 129 -63 226q-69 118 -187 124v-350h-300v800h4q168 0 306 -58q156 -65 240 -192v250h300v-800z" />
    <glyph glyph-name="O" unicode="O" 
d="M875 400q0 -168 -130 -286q-125 -114 -295 -114t-295 114q-130 118 -130 286t130 286q125 114 295 114t295 -114q130 -118 130 -286zM605 400q0 61 -47 105.5t-108 44.5q-62 0 -108.5 -44.5t-46.5 -105.5t46.5 -105.5t108.5 -44.5t108.5 44.5t46.5 105.5z" />
    <glyph glyph-name="P" unicode="P" 
d="M875 520q0 -110 -85 -195t-195 -85h-270v-240h-300v430h490q24 0 42 18t18 42t-18 42t-42 18h-490v250h570q110 0 195 -85t85 -195z" />
    <glyph glyph-name="Q" unicode="Q" horiz-adv-x="950" 
d="M925 0h-475q-170 0 -295 114q-130 118 -130 286t130 286q125 114 295 114t295 -114q130 -118 130 -286q0 -77 -30 -150h80v-250zM605 400q0 61 -47 105.5t-108 44.5t-108 -44.5t-47 -105.5t46.5 -105.5t108.5 -44.5t108.5 44.5t46.5 105.5z" />
    <glyph glyph-name="R" unicode="R" horiz-adv-x="950" 
d="M925 0h-260q-100 0 -200 100l-140 140v-240h-300v430h490q24 0 42 18t18 42t-18 42t-42 18h-490v250h570q111 0 195.5 -80t84.5 -190q0 -81 -48 -150t-124 -98q19 -32 52 -32h170v-250z" />
    <glyph glyph-name="S" unicode="S" horiz-adv-x="850" 
d="M825 550h-318q-20 0 -20 -23q0 -6 3 -8l145 -109q90 -68 90 -182q0 -95 -77.5 -161.5t-173.5 -66.5h-449v250h297q20 0 20 24q0 5 -3 7l-135 99q-79 58 -79 177q0 98 76 170.5t174 72.5h450v-250z" />
    <glyph glyph-name="T" unicode="T" 
d="M875 550h-275v-550h-300v550h-275v250h850v-250z" />
    <glyph glyph-name="U" unicode="U" 
d="M875 400q0 -168 -130 -286q-125 -114 -295 -114t-295 114q-130 118 -130 286v400h270v-400q0 -61 46.5 -105.5t108.5 -44.5q61 0 108 44.5t47 105.5v400h270v-400z" />
    <glyph glyph-name="V" unicode="V" horiz-adv-x="950" 
d="M925 800l-210 -800h-480l-210 800h310l140 -533l140 533h310z" />
    <glyph glyph-name="W" unicode="W" horiz-adv-x="1290" 
d="M1265 800l-210 -800h-340l-70 267l-70 -267h-340l-210 800h310l70 -267l70 267h340l70 -267l70 267h310z" />
    <glyph glyph-name="X" unicode="X" horiz-adv-x="1050" 
d="M1025 0h-370l-130 165l-130 -165h-370l315 400l-315 400h370l130 -165l130 165h370l-315 -400z" />
    <glyph glyph-name="Y" unicode="Y" horiz-adv-x="990" 
d="M965 800l-320 -550v-250h-300v250l-320 550h340l130 -235l130 235h340z" />
    <glyph glyph-name="Z" unicode="Z" 
d="M875 0h-850l364 550h-364v250h850l-364 -550h364v-250z" />
    <glyph glyph-name="bracketleft" unicode="[" horiz-adv-x="350" 
d="M325 -100h-300v1000h300v-200h-100v-600h100v-200z" />
    <glyph glyph-name="backslash" unicode="\" horiz-adv-x="530" 
d="M530 -36l-188 -68l-342 940l188 68z" />
    <glyph glyph-name="bracketright" unicode="]" horiz-adv-x="350" 
d="M325 -100h-300v200h100v600h-100v200h300v-1000z" />
    <glyph glyph-name="asciicircum" unicode="^" horiz-adv-x="570" 
d="M545 450h-120l-140 245l-140 -245h-120l200 350h120z" />
    <glyph glyph-name="underscore" unicode="_" horiz-adv-x="400" 
d="M400 0h-400v150h400v-150z" />
    <glyph glyph-name="grave" unicode="`" horiz-adv-x="500" 
d="M475 850l-450 50l100 100l350 -130v-20z" />
    <glyph glyph-name="a" unicode="a" horiz-adv-x="950" 
d="M925 0h-310l-26 100h-228l-26 -100h-310l210 800h480zM536 300l-61 233l-61 -233h122z" />
    <glyph glyph-name="b" unicode="b" 
d="M875 233q0 -103 -91 -171q-83 -62 -189 -62h-570v800h520q107 0 190 -63q90 -69 90 -172q0 -80 -49 -142q99 -67 99 -190zM565 540q0 24 -18 42t-42 18h-200v-120h200q24 0 42 18t18 42zM575 260q0 24 -18 42t-42 18h-210v-120h210q24 0 42 18t18 42z" />
    <glyph glyph-name="c" unicode="c" horiz-adv-x="800" 
d="M775 0h-325q-170 0 -295 114q-130 118 -130 286t130 286q125 114 295 114h325v-250h-325q-61 0 -108 -44.5t-47 -105.5t46.5 -105.5t108.5 -44.5h325v-250z" />
    <glyph glyph-name="d" unicode="d" 
d="M875 400q0 -168 -130 -286q-125 -114 -295 -114h-425v800h425q170 0 295 -114q130 -118 130 -286zM605 400q0 61 -47 105.5t-108 44.5h-145v-300h145q62 0 108.5 44.5t46.5 105.5z" />
    <glyph glyph-name="e" unicode="e" horiz-adv-x="850" 
d="M825 0h-800v800h800v-250h-500v-45h300v-210h-300v-45h500v-250z" />
    <glyph glyph-name="f" unicode="f" horiz-adv-x="850" 
d="M825 550h-500v-45h300v-210h-300v-295h-300v800h800v-250z" />
    <glyph glyph-name="g" unicode="g" 
d="M875 0h-425q-170 0 -295 114q-130 118 -130 286t130 286q125 114 295 114h425v-250h-425q-61 0 -108 -44.5t-47 -105.5t46.5 -105.5t108.5 -44.5h125v150h300v-400z" />
    <glyph glyph-name="h" unicode="h" 
d="M875 0h-300v295h-250v-295h-300v800h300v-295h250v295h300v-800z" />
    <glyph glyph-name="i" unicode="i" horiz-adv-x="350" 
d="M325 0h-300v800h300v-800z" />
    <glyph glyph-name="j" unicode="j" horiz-adv-x="525" 
d="M500 50q0 -163 -143 -218q-86 -32 -282 -32l-50 250q99 0 132 9q73 20 73 91v650h270v-750z" />
    <glyph glyph-name="k" unicode="k" 
d="M875 0h-210q-100 0 -200 100l-140 140v-240h-300v800h300v-262l184 262h366l-292 -418l120 -120q12 -12 49 -12h123v-250z" />
    <glyph glyph-name="l" unicode="l" horiz-adv-x="800" 
d="M775 0h-750v800h300v-550h450v-250z" />
    <glyph glyph-name="m" unicode="m" horiz-adv-x="1000" 
d="M975 0h-300v250l-175 -250l-175 250v-250h-300v800h300l175 -250l175 250h300v-800z" />
    <glyph glyph-name="n" unicode="n" 
d="M875 0h-300l-250 320v-320h-300v800h300l250 -320v320h300v-800z" />
    <glyph glyph-name="o" unicode="o" 
d="M875 400q0 -168 -130 -286q-125 -114 -295 -114t-295 114q-130 118 -130 286t130 286q125 114 295 114t295 -114q130 -118 130 -286zM605 400q0 61 -47 105.5t-108 44.5q-62 0 -108.5 -44.5t-46.5 -105.5t46.5 -105.5t108.5 -44.5t108.5 44.5t46.5 105.5z" />
    <glyph glyph-name="p" unicode="p" 
d="M875 520q0 -110 -85 -195t-195 -85h-270v-240h-300v800h570q110 0 195 -85t85 -195zM575 520q0 24 -18 42t-42 18h-190v-120h190q24 0 42 18t18 42z" />
    <glyph glyph-name="q" unicode="q" horiz-adv-x="950" 
d="M925 0h-475q-170 0 -295 114q-130 118 -130 286t130 286q125 114 295 114t295 -114q130 -118 130 -286q0 -77 -30 -150h80v-250zM605 400q0 61 -47 105.5t-108 44.5t-108 -44.5t-47 -105.5t46.5 -105.5t108.5 -44.5t108.5 44.5t46.5 105.5z" />
    <glyph glyph-name="r" unicode="r" horiz-adv-x="950" 
d="M925 0h-260q-100 0 -200 100l-140 140v-240h-300v800h570q111 0 195.5 -80t84.5 -190q0 -81 -48 -150t-124 -98q18 -32 52 -32h170v-250zM575 520q0 24 -18 42t-42 18h-190v-120h190q24 0 42 18t18 42z" />
    <glyph glyph-name="s" unicode="s" horiz-adv-x="850" 
d="M825 550h-318q-20 0 -20 -23q0 -6 3 -8l145 -109q90 -68 90 -182q0 -95 -77.5 -161.5t-173.5 -66.5h-449v250h297q20 0 20 24q0 5 -3 7l-135 99q-79 58 -79 177q0 98 76 170.5t174 72.5h450v-250z" />
    <glyph glyph-name="t" unicode="t" 
d="M875 550h-275v-550h-300v550h-275v250h850v-250z" />
    <glyph glyph-name="u" unicode="u" 
d="M875 400q0 -168 -130 -286q-125 -114 -295 -114t-295 114q-130 118 -130 286v400h270v-400q0 -61 46.5 -105.5t108.5 -44.5q61 0 108 44.5t47 105.5v400h270v-400z" />
    <glyph glyph-name="v" unicode="v" horiz-adv-x="950" 
d="M925 800l-210 -800h-480l-210 800h310l140 -533l140 533h310z" />
    <glyph glyph-name="w" unicode="w" horiz-adv-x="1290" 
d="M1265 800l-210 -800h-340l-70 267l-70 -267h-340l-210 800h310l70 -267l70 267h340l70 -267l70 267h310z" />
    <glyph glyph-name="x" unicode="x" horiz-adv-x="1050" 
d="M1025 0h-370l-130 165l-130 -165h-370l315 400l-315 400h370l130 -165l130 165h370l-315 -400z" />
    <glyph glyph-name="y" unicode="y" horiz-adv-x="990" 
d="M965 800l-320 -550v-250h-300v250l-320 550h340l130 -235l130 235h340z" />
    <glyph glyph-name="z" unicode="z" 
d="M875 0h-850l364 550h-364v250h850l-364 -550h364v-250z" />
    <glyph glyph-name="braceleft" unicode="{" horiz-adv-x="450" 
d="M425 -100h-100q-80 0 -140 60t-60 140v150q0 40 -29.5 69t-70.5 31v90q41 2 70.5 31t29.5 69v160q0 80 60 140t140 60h100v-200h-100v-200q0 -40 -29.5 -69t-70.5 -31q41 -2 70.5 -31t29.5 -69v-200h100v-200z" />
    <glyph glyph-name="bar" unicode="|" horiz-adv-x="277" 
d="M225 -100h-200v1000h200v-1000z" />
    <glyph glyph-name="braceright" unicode="}" horiz-adv-x="450" 
d="M425 350q-41 -2 -70.5 -31t-29.5 -69v-150q0 -80 -60 -140t-140 -60h-100v200h100v200q0 40 29.5 69t70.5 31q-41 2 -70.5 31t-29.5 69v200h-100v200h100q80 0 140 -60t60 -140v-160q0 -40 29.5 -69t70.5 -31v-90z" />
    <glyph glyph-name="asciitilde" unicode="~" horiz-adv-x="450" 
d="M425 891q-56 -41 -103 -41q-34 0 -98 24t-98 24q-47 0 -101 -48v102q45 39 101 39q35 0 99.5 -24t99.5 -24q46 0 100 48v-100z" />
    <glyph glyph-name="nonbreakingspace" unicode="&#xa0;" horiz-adv-x="450" 
 />
    <glyph glyph-name="exclamdown" unicode="&#xa1;" horiz-adv-x="250" 
d="M225 700q0 -41 -29.5 -70.5t-70.5 -29.5t-70.5 29.5t-29.5 70.5t29.5 70.5t70.5 29.5t70.5 -29.5t29.5 -70.5zM225 0h-200l20 550h160z" />
    <glyph glyph-name="cent" unicode="&#xa2;" horiz-adv-x="800" 
d="M775 0h-235v-100h-200v114q-136 35 -224 140q-91 109 -91 246t91 246q88 104 224 140v114h200v-100h235v-250h-325q-61 0 -108 -44.5t-47 -105.5t46.5 -105.5t108.5 -44.5h325v-250z" />
    <glyph glyph-name="yen" unicode="&#xa5;" horiz-adv-x="990" 
d="M965 800l-175 -300h125v-150h-212l-29 -50h241v-150h-270v-150h-300v150h-270v150h241l-29 50h-212v150h125l-175 300h340l130 -235l130 235h340z" />
    <glyph glyph-name="dieresis" unicode="&#xa8;" horiz-adv-x="450" 
d="M425 925q0 -31 -22 -53t-53 -22q-30 0 -52.5 22.5t-22.5 52.5q0 31 22 53t53 22q30 0 52.5 -22.5t22.5 -52.5zM175 925q0 -31 -22 -53t-53 -22q-30 0 -52.5 22.5t-22.5 52.5q0 31 22 53t53 22q30 0 52.5 -22.5t22.5 -52.5z" />
    <glyph glyph-name="copyright" unicode="&#xa9;" horiz-adv-x="730" 
d="M705 400q0 -139 -100.5 -239.5t-239.5 -100.5t-239.5 100.5t-100.5 239.5t100.5 239.5t239.5 100.5q138 0 239 -101t101 -239zM605 400q0 97 -71.5 168.5t-168.5 71.5t-168.5 -71.5t-71.5 -168.5t71.5 -168.5t168.5 -71.5t168.5 71.5t71.5 168.5zM466 250h-113
q-64 0 -115 42q-54 45 -54 108t54 108q50 42 115 42h113v-94h-113q-25 0 -46 -16t-21 -40t21 -40t46 -16h113v-94z" />
    <glyph glyph-name="minus" unicode="&#xad;" horiz-adv-x="450" 
d="M425 325h-400v150h400v-150z" />
    <glyph glyph-name="minus" unicode="&#x2212;" horiz-adv-x="450" 
d="M425 325h-400v150h400v-150z" />
    <glyph glyph-name="registered" unicode="&#xae;" horiz-adv-x="730" 
d="M705 400q0 -139 -100.5 -239.5t-239.5 -100.5t-239.5 100.5t-100.5 239.5t100.5 239.5t239.5 100.5q138 0 239 -101t101 -239zM605 400q0 97 -71.5 168.5t-168.5 71.5t-168.5 -71.5t-71.5 -168.5t71.5 -168.5t168.5 -71.5t168.5 71.5t71.5 168.5zM534 250h-98
q-35 0 -72 31q-9 9 -55 59v-90h-113v300h214q41 0 73 -30t32 -71q0 -67 -65 -93q7 -12 20 -12h64v-94zM402 445q0 23 -22 23h-71v-46h71q22 0 22 23z" />
    <glyph glyph-name="degree" unicode="&#xb0;" horiz-adv-x="275" 
d="M250 687q0 -46 -33.5 -79t-79.5 -33t-79 33t-33 79t33 79.5t79 33.5t79.5 -33.5t33.5 -79.5zM190 687q0 21 -16 37t-37 16t-37 -16t-16 -37q0 -22 16 -37.5t37 -15.5t37 16t16 37z" />
    <glyph glyph-name="plusminus" unicode="&#xb1;" horiz-adv-x="450" 
d="M425 325h-125v-125h-150v125h-125v150h125v125h150v-125h125v-150zM425 0h-400v150h400v-150z" />
    <glyph glyph-name="acute" unicode="&#xb4;" horiz-adv-x="500" 
d="M475 900l-450 -50v20l350 130z" />
    <glyph glyph-name="paragraph" unicode="&#xb6;" 
d="M875 580h-70v-580h-200v580h-100v-580h-200v240q-111 1 -195.5 85t-84.5 195q0 110 85 195t195 85h570v-220z" />
    <glyph glyph-name="onequarter" unicode="&#xbc;" horiz-adv-x="899" 
d="M874 65h-25v-75h-140v75h-260l50 275h145l-27 -150h92v200h140v-200h25v-125zM603 742l-274 -752l-188 68l274 752zM215 400h-140v285h-50l50 115h140v-400z" />
    <glyph glyph-name="onehalf" unicode="&#xbd;" horiz-adv-x="949" 
d="M924 0h-425v126q0 50 37.5 88t87.5 38h150q15 0 15 15q0 18 -15 18h-250v115h275q50 0 87.5 -38.5t37.5 -88.5t-37.5 -88t-87.5 -38h-150q-16 0 -15 -32h290v-115zM603 742l-274 -752l-188 68l274 752zM215 400h-140v285h-50l50 115h140v-400z" />
    <glyph glyph-name="threequarters" unicode="&#xbe;" horiz-adv-x="1079" 
d="M1054 75h-25v-75h-140v75h-260l50 275h145l-27 -150h92v200h140v-200h25v-125zM773 742l-274 -752l-188 68l274 752zM425 525q0 -51 -37 -88t-88 -37h-275v115h250q15 0 15 16q0 17 -15 17h-150v105h150q15 0 15 15q0 17 -15 17h-250v115h275q52 0 88.5 -37t36.5 -89
q0 -41 -25 -74q25 -33 25 -75z" />
    <glyph glyph-name="questiondown" unicode="&#xbf;" horiz-adv-x="750" 
d="M725 700q0 -41 -29.5 -70.5t-70.5 -29.5t-70.5 29.5t-29.5 70.5t29.5 70.5t70.5 29.5t70.5 -29.5t29.5 -70.5zM725 0h-450q-100 0 -175 76.5t-75 176.5q0 99 75.5 175.5t174.5 76.5h210q42 0 40 65h200v-23q0 -99 -75.5 -175.5t-174.5 -76.5h-150q-30 0 -30 -30
q0 -35 30 -35h400v-230z" />
    <glyph glyph-name="Agrave" unicode="&#xc0;" horiz-adv-x="950" 
d="M600 850l-450 50l100 100l350 -130v-20zM925 0h-310l-26 100h-228l-26 -100h-310l210 800h480zM536 300l-61 233l-61 -233h122z" />
    <glyph glyph-name="Aacute" unicode="&#xc1;" horiz-adv-x="950" 
d="M800 900l-450 -50v20l350 130zM925 0h-310l-26 100h-228l-26 -100h-310l210 800h480zM536 300l-61 233l-61 -233h122z" />
    <glyph glyph-name="Acircumflex" unicode="&#xc2;" horiz-adv-x="950" 
d="M766 850h-162l-129 97l-129 -97h-162l200 150h182zM925 0h-310l-26 100h-228l-26 -100h-310l210 800h480zM536 300l-61 233l-61 -233h122z" />
    <glyph glyph-name="Atilde" unicode="&#xc3;" horiz-adv-x="950" 
d="M675 891q-56 -41 -103 -41q-34 0 -98 24t-98 24q-47 0 -101 -48v102q45 39 101 39q35 0 99.5 -24t99.5 -24q46 0 100 48v-100zM925 0h-310l-26 100h-228l-26 -100h-310l210 800h480zM536 300l-61 233l-61 -233h122z" />
    <glyph glyph-name="Adieresis" unicode="&#xc4;" horiz-adv-x="950" 
d="M675 925q0 -31 -22 -53t-53 -22q-30 0 -52.5 22.5t-22.5 52.5t22.5 52.5t52.5 22.5q31 0 53 -22t22 -53zM425 925q0 -31 -22 -53t-53 -22q-30 0 -52.5 22.5t-22.5 52.5t22.5 52.5t52.5 22.5q31 0 53 -22t22 -53zM925 0h-310l-26 100h-228l-26 -100h-310l210 800h480z
M536 300l-61 233l-61 -233h122z" />
    <glyph glyph-name="Aring" unicode="&#xc5;" horiz-adv-x="950" 
d="M550 925q0 -30 -22.5 -52.5t-52.5 -22.5t-52.5 22.5t-22.5 52.5t22.5 52.5t52.5 22.5t52.5 -22.5t22.5 -52.5zM925 0h-310l-26 100h-228l-26 -100h-310l210 800h480zM510 925q0 14 -10.5 24.5t-24.5 10.5q-35 0 -35 -35t35 -35q14 0 24.5 10.5t10.5 24.5zM536 300
l-61 233l-61 -233h122z" />
    <glyph glyph-name="AE" unicode="&#xc6;" horiz-adv-x="1440" 
d="M1415 0h-800v100h-228l-52 -100h-310l416 800h974v-250h-500v-45h300v-210h-300v-45h500v-250zM615 280v253l-134 -253h134z" />
    <glyph glyph-name="Egrave" unicode="&#xc8;" horiz-adv-x="850" 
d="M550 850l-450 50l100 100l350 -130v-20zM825 0h-800v800h800v-250h-500v-45h300v-210h-300v-45h500v-250z" />
    <glyph glyph-name="Eacute" unicode="&#xc9;" horiz-adv-x="850" 
d="M750 900l-450 -50v20l350 130zM825 0h-800v800h800v-250h-500v-45h300v-210h-300v-45h500v-250z" />
    <glyph glyph-name="Ecircumflex" unicode="&#xca;" horiz-adv-x="850" 
d="M716 850h-162l-129 97l-129 -97h-162l200 150h182zM825 0h-800v800h800v-250h-500v-45h300v-210h-300v-45h500v-250z" />
    <glyph glyph-name="Edieresis" unicode="&#xcb;" horiz-adv-x="850" 
d="M625 925q0 -30 -22.5 -52.5t-52.5 -22.5t-52.5 22.5t-22.5 52.5t22.5 52.5t52.5 22.5q31 0 53 -22t22 -53zM375 925q0 -30 -22.5 -52.5t-52.5 -22.5t-52.5 22.5t-22.5 52.5t22.5 52.5t52.5 22.5q31 0 53 -22t22 -53zM825 0h-800v800h800v-250h-500v-45h300v-210h-300v-45
h500v-250z" />
    <glyph glyph-name="Igrave" unicode="&#xcc;" horiz-adv-x="350" 
d="M300 850l-450 50l100 100l350 -130v-20zM325 0h-300v800h300v-800z" />
    <glyph glyph-name="Iacute" unicode="&#xcd;" horiz-adv-x="350" 
d="M500 900l-450 -50v20l350 130zM325 0h-300v800h300v-800z" />
    <glyph glyph-name="Icircumflex" unicode="&#xce;" horiz-adv-x="350" 
d="M466 850h-162l-129 97l-129 -97h-162l200 150h182zM325 0h-300v800h300v-800z" />
    <glyph glyph-name="Idieresis" unicode="&#xcf;" horiz-adv-x="350" 
d="M375 925q0 -30 -22.5 -52.5t-52.5 -22.5t-52.5 22.5t-22.5 52.5t22.5 52.5t52.5 22.5q31 0 53 -22t22 -53zM125 925q0 -30 -22.5 -52.5t-52.5 -22.5t-52.5 22.5t-22.5 52.5t22.5 52.5t52.5 22.5q31 0 53 -22t22 -53zM325 0h-300v800h300v-800z" />
    <glyph glyph-name="Ntilde" unicode="&#xd1;" 
d="M650 891q-56 -41 -103 -41q-34 0 -98 24t-98 24q-47 0 -101 -48v102q45 39 101 39q35 0 99.5 -24t99.5 -24q46 0 100 48v-100zM875 0h-300q-5 129 -63 226q-69 118 -187 124v-350h-300v800h4q168 0 306 -58q156 -65 240 -192v250h300v-800z" />
    <glyph glyph-name="Ograve" unicode="&#xd2;" 
d="M575 850l-450 50l100 100l350 -130v-20zM875 400q0 -168 -130 -286q-125 -114 -295 -114t-295 114q-130 118 -130 286t130 286q125 114 295 114t295 -114q130 -118 130 -286zM605 400q0 61 -47 105.5t-108 44.5q-62 0 -108.5 -44.5t-46.5 -105.5t46.5 -105.5t108.5 -44.5
t108.5 44.5t46.5 105.5z" />
    <glyph glyph-name="Oacute" unicode="&#xd3;" 
d="M775 900l-450 -50v20l350 130zM875 400q0 -168 -130 -286q-125 -114 -295 -114t-295 114q-130 118 -130 286t130 286q125 114 295 114t295 -114q130 -118 130 -286zM605 400q0 61 -47 105.5t-108 44.5q-62 0 -108.5 -44.5t-46.5 -105.5t46.5 -105.5t108.5 -44.5
t108.5 44.5t46.5 105.5z" />
    <glyph glyph-name="Ocircumflex" unicode="&#xd4;" 
d="M741 850h-162l-129 97l-129 -97h-162l200 150h182zM875 400q0 -168 -130 -286q-125 -114 -295 -114t-295 114q-130 118 -130 286t130 286q125 114 295 114t295 -114q130 -118 130 -286zM605 400q0 61 -47 105.5t-108 44.5t-108 -44.5t-47 -105.5t46.5 -105.5t108.5 -44.5
t108.5 44.5t46.5 105.5z" />
    <glyph glyph-name="Otilde" unicode="&#xd5;" 
d="M650 891q-56 -41 -103 -41q-34 0 -98 24t-98 24q-47 0 -101 -48v102q45 39 101 39q35 0 99.5 -24t99.5 -24q46 0 100 48v-100zM875 400q0 -168 -130 -286q-125 -114 -295 -114t-295 114q-130 118 -130 286t130 286q125 114 295 114t295 -114q130 -118 130 -286zM605 400
q0 61 -47 105.5t-108 44.5q-62 0 -108.5 -44.5t-46.5 -105.5t46.5 -105.5t108.5 -44.5t108.5 44.5t46.5 105.5z" />
    <glyph glyph-name="Odieresis" unicode="&#xd6;" 
d="M650 925q0 -31 -22 -53t-53 -22q-30 0 -52.5 22.5t-22.5 52.5t22.5 52.5t52.5 22.5q31 0 53 -22t22 -53zM400 925q0 -31 -22 -53t-53 -22q-30 0 -52.5 22.5t-22.5 52.5t22.5 52.5t52.5 22.5q31 0 53 -22t22 -53zM875 400q0 -168 -130 -286q-125 -114 -295 -114t-295 114
q-130 118 -130 286t130 286q125 114 295 114t295 -114q130 -118 130 -286zM605 400q0 61 -47 105.5t-108 44.5q-62 0 -108.5 -44.5t-46.5 -105.5t46.5 -105.5t108.5 -44.5t108.5 44.5t46.5 105.5z" />
    <glyph glyph-name="multiply" unicode="&#xd7;" horiz-adv-x="438" 
d="M413 312l-106 -106l-88 88l-88 -88l-106 106l88 88l-88 88l106 106l88 -88l88 88l106 -106l-88 -88z" />
    <glyph glyph-name="Oslash" unicode="&#xd8;" 
d="M927 771l-135 -135q83 -105 83 -236q0 -168 -130 -286q-125 -114 -295 -114q-122 0 -229 65l-142 -142l-106 106l135 135q-83 105 -83 236q0 168 130 286q125 114 295 114q122 0 229 -65l142 142zM605 400q0 21 -7 42l-187 -187q19 -5 39 -5q62 0 108.5 44.5t46.5 105.5z
M489 545q-19 5 -39 5q-61 0 -108 -44.5t-47 -105.5q0 -20 7 -42z" />
    <glyph glyph-name="Ugrave" unicode="&#xd9;" 
d="M575 850l-450 50l100 100l350 -130v-20zM875 400q0 -168 -130 -286q-125 -114 -295 -114t-295 114q-130 118 -130 286v400h270v-400q0 -61 46.5 -105.5t108.5 -44.5q61 0 108 44.5t47 105.5v400h270v-400z" />
    <glyph glyph-name="Uacute" unicode="&#xda;" 
d="M775 900l-450 -50v20l350 130zM875 400q0 -168 -130 -286q-125 -114 -295 -114t-295 114q-130 118 -130 286v400h270v-400q0 -61 46.5 -105.5t108.5 -44.5q61 0 108 44.5t47 105.5v400h270v-400z" />
    <glyph glyph-name="Ucircumflex" unicode="&#xdb;" 
d="M741 850h-162l-129 97l-129 -97h-162l200 150h182zM875 400q0 -168 -130 -286q-125 -114 -295 -114t-295 114q-130 118 -130 286v400h270v-400q0 -61 46.5 -105.5t108.5 -44.5q61 0 108 44.5t47 105.5v400h270v-400z" />
    <glyph glyph-name="Udieresis" unicode="&#xdc;" 
d="M650 925q0 -31 -22 -53t-53 -22q-30 0 -52.5 22.5t-22.5 52.5t22.5 52.5t52.5 22.5t52.5 -22.5t22.5 -52.5zM400 925q0 -31 -22 -53t-53 -22q-30 0 -52.5 22.5t-22.5 52.5t22.5 52.5t52.5 22.5t52.5 -22.5t22.5 -52.5zM875 400q0 -168 -130 -286q-125 -114 -295 -114
t-295 114q-130 118 -130 286v400h270v-400q0 -61 46.5 -105.5t108.5 -44.5q61 0 108 44.5t47 105.5v400h270v-400z" />
    <glyph glyph-name="Yacute" unicode="&#xdd;" horiz-adv-x="990" 
d="M820 900l-450 -50v20l350 130zM965 800l-320 -550v-250h-300v250l-320 550h340l130 -235l130 235h340z" />
    <glyph glyph-name="agrave" unicode="&#xe0;" horiz-adv-x="950" 
d="M600 850l-450 50l100 100l350 -130v-20zM925 0h-310l-26 100h-228l-26 -100h-310l210 800h480zM536 300l-61 233l-61 -233h122z" />
    <glyph glyph-name="aacute" unicode="&#xe1;" horiz-adv-x="950" 
d="M800 900l-450 -50v20l350 130zM925 0h-310l-26 100h-228l-26 -100h-310l210 800h480zM536 300l-61 233l-61 -233h122z" />
    <glyph glyph-name="acircumflex" unicode="&#xe2;" horiz-adv-x="950" 
d="M766 850h-162l-129 97l-129 -97h-162l200 150h182zM925 0h-310l-26 100h-228l-26 -100h-310l210 800h480zM536 300l-61 233l-61 -233h122z" />
    <glyph glyph-name="atilde" unicode="&#xe3;" horiz-adv-x="950" 
d="M675 891q-56 -41 -103 -41q-34 0 -98 24t-98 24q-47 0 -101 -48v102q45 39 101 39q35 0 99.5 -24t99.5 -24q46 0 100 48v-100zM925 0h-310l-26 100h-228l-26 -100h-310l210 800h480zM536 300l-61 233l-61 -233h122z" />
    <glyph glyph-name="adieresis" unicode="&#xe4;" horiz-adv-x="950" 
d="M675 925q0 -30 -22.5 -52.5t-52.5 -22.5t-52.5 22.5t-22.5 52.5q0 31 22 53t53 22t53 -22t22 -53zM425 925q0 -30 -22.5 -52.5t-52.5 -22.5t-52.5 22.5t-22.5 52.5q0 31 22 53t53 22t53 -22t22 -53zM925 0h-310l-26 100h-228l-26 -100h-310l210 800h480zM536 300l-61 233
l-61 -233h122z" />
    <glyph glyph-name="aring" unicode="&#xe5;" horiz-adv-x="950" 
d="M550 925q0 -30 -22.5 -52.5t-52.5 -22.5t-52.5 22.5t-22.5 52.5t22.5 52.5t52.5 22.5t52.5 -22.5t22.5 -52.5zM925 0h-310l-26 100h-228l-26 -100h-310l210 800h480zM510 925q0 14 -10.5 24.5t-24.5 10.5q-35 0 -35 -35t35 -35q14 0 24.5 10.5t10.5 24.5zM536 300
l-61 233l-61 -233h122z" />
    <glyph glyph-name="ae" unicode="&#xe6;" horiz-adv-x="1440" 
d="M1415 0h-800v100h-228l-52 -100h-310l416 800h974v-250h-500v-45h300v-210h-300v-45h500v-250zM615 280v253l-134 -253h134z" />
    <glyph glyph-name="egrave" unicode="&#xe8;" horiz-adv-x="850" 
d="M550 850l-450 50l100 100l350 -130v-20zM825 0h-800v800h800v-250h-500v-45h300v-210h-300v-45h500v-250z" />
    <glyph glyph-name="eacute" unicode="&#xe9;" horiz-adv-x="850" 
d="M750 900l-450 -50v20l350 130zM825 0h-800v800h800v-250h-500v-45h300v-210h-300v-45h500v-250z" />
    <glyph glyph-name="ecircumflex" unicode="&#xea;" horiz-adv-x="850" 
d="M716 850h-162l-129 97l-129 -97h-162l200 150h182zM825 0h-800v800h800v-250h-500v-45h300v-210h-300v-45h500v-250z" />
    <glyph glyph-name="edieresis" unicode="&#xeb;" horiz-adv-x="850" 
d="M625 925q0 -30 -22.5 -52.5t-52.5 -22.5t-52.5 22.5t-22.5 52.5t22.5 52.5t52.5 22.5t52.5 -22.5t22.5 -52.5zM375 925q0 -30 -22.5 -52.5t-52.5 -22.5t-52.5 22.5t-22.5 52.5t22.5 52.5t52.5 22.5t52.5 -22.5t22.5 -52.5zM825 0h-800v800h800v-250h-500v-45h300v-210
h-300v-45h500v-250z" />
    <glyph glyph-name="igrave" unicode="&#xec;" horiz-adv-x="350" 
d="M300 850l-450 50l100 100l350 -130v-20zM325 0h-300v800h300v-800z" />
    <glyph glyph-name="iacute" unicode="&#xed;" horiz-adv-x="350" 
d="M500 900l-450 -50v20l350 130zM325 0h-300v800h300v-800z" />
    <glyph glyph-name="icircumflex" unicode="&#xee;" horiz-adv-x="350" 
d="M466 850h-162l-129 97l-129 -97h-162l200 150h182zM325 0h-300v800h300v-800z" />
    <glyph glyph-name="idieresis" unicode="&#xef;" horiz-adv-x="350" 
d="M375 925q0 -30 -22.5 -52.5t-52.5 -22.5t-52.5 22.5t-22.5 52.5q0 31 22 53t53 22q30 0 52.5 -22.5t22.5 -52.5zM125 925q0 -30 -22.5 -52.5t-52.5 -22.5t-52.5 22.5t-22.5 52.5q0 31 22 53t53 22q30 0 52.5 -22.5t22.5 -52.5zM325 0h-300v800h300v-800z" />
    <glyph glyph-name="ntilde" unicode="&#xf1;" 
d="M650 891q-56 -41 -103 -41q-34 0 -98 24t-98 24q-47 0 -101 -48v102q45 39 101 39q35 0 99.5 -24t99.5 -24q46 0 100 48v-100zM875 0h-300l-250 320v-320h-300v800h300l250 -320v320h300v-800z" />
    <glyph glyph-name="ograve" unicode="&#xf2;" 
d="M575 850l-450 50l100 100l350 -130v-20zM875 400q0 -168 -130 -286q-125 -114 -295 -114t-295 114q-130 118 -130 286t130 286q125 114 295 114t295 -114q130 -118 130 -286zM605 400q0 61 -47 105.5t-108 44.5q-62 0 -108.5 -44.5t-46.5 -105.5t46.5 -105.5t108.5 -44.5
t108.5 44.5t46.5 105.5z" />
    <glyph glyph-name="oacute" unicode="&#xf3;" 
d="M775 900l-450 -50v20l350 130zM875 400q0 -168 -130 -286q-125 -114 -295 -114t-295 114q-130 118 -130 286t130 286q125 114 295 114t295 -114q130 -118 130 -286zM605 400q0 61 -47 105.5t-108 44.5q-62 0 -108.5 -44.5t-46.5 -105.5t46.5 -105.5t108.5 -44.5
t108.5 44.5t46.5 105.5z" />
    <glyph glyph-name="ocircumflex" unicode="&#xf4;" 
d="M741 850h-162l-129 97l-129 -97h-162l200 150h182zM875 400q0 -168 -130 -286q-125 -114 -295 -114t-295 114q-130 118 -130 286t130 286q125 114 295 114t295 -114q130 -118 130 -286zM605 400q0 61 -47 105.5t-108 44.5t-108 -44.5t-47 -105.5t46.5 -105.5t108.5 -44.5
t108.5 44.5t46.5 105.5z" />
    <glyph glyph-name="otilde" unicode="&#xf5;" 
d="M650 891q-56 -41 -103 -41q-34 0 -98 24t-98 24q-47 0 -101 -48v102q45 39 101 39q35 0 99.5 -24t99.5 -24q46 0 100 48v-100zM875 400q0 -168 -130 -286q-125 -114 -295 -114t-295 114q-130 118 -130 286t130 286q125 114 295 114t295 -114q130 -118 130 -286zM605 400
q0 61 -47 105.5t-108 44.5q-62 0 -108.5 -44.5t-46.5 -105.5t46.5 -105.5t108.5 -44.5t108.5 44.5t46.5 105.5z" />
    <glyph glyph-name="odieresis" unicode="&#xf6;" 
d="M650 925q0 -31 -22 -53t-53 -22q-30 0 -52.5 22.5t-22.5 52.5t22.5 52.5t52.5 22.5t52.5 -22.5t22.5 -52.5zM400 925q0 -31 -22 -53t-53 -22q-30 0 -52.5 22.5t-22.5 52.5t22.5 52.5t52.5 22.5t52.5 -22.5t22.5 -52.5zM875 400q0 -168 -130 -286q-125 -114 -295 -114
t-295 114q-130 118 -130 286t130 286q125 114 295 114t295 -114q130 -118 130 -286zM605 400q0 61 -47 105.5t-108 44.5q-62 0 -108.5 -44.5t-46.5 -105.5t46.5 -105.5t108.5 -44.5t108.5 44.5t46.5 105.5z" />
    <glyph glyph-name="divide" unicode="&#xf7;" horiz-adv-x="450" 
d="M300 570q0 -30 -22.5 -52.5t-52.5 -22.5t-52.5 22.5t-22.5 52.5t22.5 52.5t52.5 22.5t52.5 -22.5t22.5 -52.5zM425 325h-400v150h400v-150zM300 230q0 -30 -22.5 -52.5t-52.5 -22.5t-52.5 22.5t-22.5 52.5t22.5 52.5t52.5 22.5t52.5 -22.5t22.5 -52.5z" />
    <glyph glyph-name="oslash" unicode="&#xf8;" 
d="M927 771l-135 -135q83 -105 83 -236q0 -168 -130 -286q-125 -114 -295 -114q-122 0 -229 65l-142 -142l-106 106l135 135q-83 105 -83 236q0 168 130 286q125 114 295 114q122 0 229 -65l142 142zM605 400q0 21 -7 42l-187 -187q19 -5 39 -5q62 0 108.5 44.5t46.5 105.5z
M489 545q-19 5 -39 5q-61 0 -108 -44.5t-47 -105.5q0 -20 7 -42z" />
    <glyph glyph-name="ugrave" unicode="&#xf9;" 
d="M575 850l-450 50l100 100l350 -130v-20zM875 400q0 -168 -130 -286q-125 -114 -295 -114t-295 114q-130 118 -130 286v400h270v-400q0 -61 46.5 -105.5t108.5 -44.5q61 0 108 44.5t47 105.5v400h270v-400z" />
    <glyph glyph-name="uacute" unicode="&#xfa;" 
d="M775 900l-450 -50v20l350 130zM875 400q0 -168 -130 -286q-125 -114 -295 -114t-295 114q-130 118 -130 286v400h270v-400q0 -61 46.5 -105.5t108.5 -44.5q61 0 108 44.5t47 105.5v400h270v-400z" />
    <glyph glyph-name="ucircumflex" unicode="&#xfb;" 
d="M741 850h-162l-129 97l-129 -97h-162l200 150h182zM875 400q0 -168 -130 -286q-125 -114 -295 -114t-295 114q-130 118 -130 286v400h270v-400q0 -61 46.5 -105.5t108.5 -44.5q61 0 108 44.5t47 105.5v400h270v-400z" />
    <glyph glyph-name="udieresis" unicode="&#xfc;" 
d="M650 925q0 -31 -22 -53t-53 -22q-30 0 -52.5 22.5t-22.5 52.5t22.5 52.5t52.5 22.5q31 0 53 -22t22 -53zM400 925q0 -31 -22 -53t-53 -22q-30 0 -52.5 22.5t-22.5 52.5t22.5 52.5t52.5 22.5q31 0 53 -22t22 -53zM875 400q0 -168 -130 -286q-125 -114 -295 -114t-295 114
q-130 118 -130 286v400h270v-400q0 -61 46.5 -105.5t108.5 -44.5q61 0 108 44.5t47 105.5v400h270v-400z" />
    <glyph glyph-name="yacute" unicode="&#xfd;" horiz-adv-x="990" 
d="M820 900l-450 -50v20l350 130zM965 800l-320 -550v-250h-300v250l-320 550h340l130 -235l130 235h340z" />
    <glyph glyph-name="ydieresis" unicode="&#xff;" horiz-adv-x="990" 
d="M695 925q0 -30 -22.5 -52.5t-52.5 -22.5t-52.5 22.5t-22.5 52.5t22.5 52.5t52.5 22.5q31 0 53 -22t22 -53zM445 925q0 -30 -22.5 -52.5t-52.5 -22.5t-52.5 22.5t-22.5 52.5t22.5 52.5t52.5 22.5q31 0 53 -22t22 -53zM965 800l-320 -550v-250h-300v250l-320 550h340
l130 -235l130 235h340z" />
    <glyph glyph-name="OE" unicode="&#x152;" horiz-adv-x="1435" 
d="M1410 0h-800v30q-78 -30 -160 -30q-170 0 -295 114q-130 118 -130 286t130 286q125 114 295 114q82 0 160 -30v30h800v-250h-500v-45h300v-210h-300v-45h500v-250zM605 400q0 61 -47 105.5t-108 44.5t-108 -44.5t-47 -105.5t46.5 -105.5t108.5 -44.5t108.5 44.5
t46.5 105.5z" />
    <glyph glyph-name="oe" unicode="&#x153;" horiz-adv-x="1435" 
d="M1410 0h-800v30q-78 -30 -160 -30q-170 0 -295 114q-130 118 -130 286t130 286q125 114 295 114q82 0 160 -30v30h800v-250h-500v-45h300v-210h-300v-45h500v-250zM605 400q0 61 -47 105.5t-108 44.5t-108 -44.5t-47 -105.5t46.5 -105.5t108.5 -44.5t108.5 44.5
t46.5 105.5z" />
    <glyph glyph-name="Scaron" unicode="&#x160;" horiz-adv-x="850" 
d="M716 1000l-200 -150h-182l-200 150h162l129 -97l129 97h162zM825 550h-318q-20 0 -20 -23q0 -6 3 -8l145 -109q90 -68 90 -182q0 -95 -77.5 -161.5t-173.5 -66.5h-449v250h297q20 0 20 24q0 5 -3 7l-135 99q-79 58 -79 177q0 98 76 170.5t174 72.5h450v-250z" />
    <glyph glyph-name="scaron" unicode="&#x161;" horiz-adv-x="850" 
d="M716 1000l-200 -150h-182l-200 150h162l129 -97l129 97h162zM825 550h-318q-20 0 -20 -23q0 -6 3 -8l145 -109q90 -68 90 -182q0 -95 -77.5 -161.5t-173.5 -66.5h-449v250h297q20 0 20 24q0 5 -3 7l-135 99q-79 58 -79 177q0 98 76 170.5t174 72.5h450v-250z" />
    <glyph glyph-name="Ydieresis" unicode="&#x178;" horiz-adv-x="990" 
d="M695 925q0 -31 -22 -53t-53 -22q-30 0 -52.5 22.5t-22.5 52.5t22.5 52.5t52.5 22.5q31 0 53 -22t22 -53zM445 925q0 -31 -22 -53t-53 -22q-30 0 -52.5 22.5t-22.5 52.5t22.5 52.5t52.5 22.5q31 0 53 -22t22 -53zM965 800l-320 -550v-250h-300v250l-320 550h340l130 -235
l130 235h340z" />
    <glyph glyph-name="tilde" unicode="&#x2dc;" horiz-adv-x="450" 
d="M425 891q-56 -41 -103 -41q-34 0 -98 24t-98 24q-47 0 -101 -48v102q45 39 101 39q35 0 99.5 -24t99.5 -24q46 0 100 48v-100z" />
    <glyph glyph-name="quoteleft" unicode="&#x2018;" horiz-adv-x="250" 
d="M225 600q0 -40 -30 -70t-70 -30t-70 30t-30 70q0 35 15 75.5t44 77.5q37 45 71 47l-30 -100q41 0 70.5 -29.5t29.5 -70.5z" />
    <glyph glyph-name="quoteright" unicode="&#x2019;" horiz-adv-x="250" 
d="M225 700q0 -35 -15 -75.5t-44 -77.5q-37 -45 -71 -47l30 100q-41 0 -70.5 29.5t-29.5 70.5q0 40 30 70t70 30t70 -30t30 -70z" />
    <glyph glyph-name="quotesinglbase" unicode="&#x201a;" horiz-adv-x="250" 
d="M225 100q0 -35 -15 -75.5t-44 -77.5q-37 -45 -71 -47l30 100q-41 0 -70.5 29.5t-29.5 70.5q0 40 30 70t70 30t70 -30t30 -70z" />
    <glyph glyph-name="quotereversed" unicode="&#x201b;" horiz-adv-x="250" 
d="M225 700q0 -41 -29.5 -70.5t-70.5 -29.5l30 -100q-34 2 -71 47q-29 37 -44 77.5t-15 75.5q0 40 30 70t70 30t70 -30t30 -70z" />
    <glyph glyph-name="quotedblleft" unicode="&#x201c;" horiz-adv-x="500" 
d="M475 600q0 -40 -30 -70t-70 -30t-70 30t-30 70q0 35 15 75.5t44 77.5q37 45 71 47l-30 -100q41 0 70.5 -29.5t29.5 -70.5zM225 600q0 -40 -30 -70t-70 -30t-70 30t-30 70q0 35 15 75.5t44 77.5q37 45 71 47l-30 -100q41 0 70.5 -29.5t29.5 -70.5z" />
    <glyph glyph-name="quotedblright" unicode="&#x201d;" horiz-adv-x="500" 
d="M475 700q0 -35 -15 -75.5t-44 -77.5q-37 -45 -71 -47l30 100q-41 0 -70.5 29.5t-29.5 70.5q0 40 30 70t70 30t70 -30t30 -70zM225 700q0 -35 -15 -75.5t-44 -77.5q-37 -45 -71 -47l30 100q-41 0 -70.5 29.5t-29.5 70.5q0 40 30 70t70 30t70 -30t30 -70z" />
    <glyph glyph-name="quotedblbase" unicode="&#x201e;" horiz-adv-x="500" 
d="M475 100q0 -35 -15 -75.5t-44 -77.5q-37 -45 -71 -47l30 100q-41 0 -70.5 29.5t-29.5 70.5q0 40 30 70t70 30t70 -30t30 -70zM225 100q0 -35 -15 -75.5t-44 -77.5q-37 -45 -71 -47l30 100q-41 0 -70.5 29.5t-29.5 70.5q0 40 30 70t70 30t70 -30t30 -70z" />
    <glyph glyph-name="bullet" unicode="&#x2022;" horiz-adv-x="350" 
d="M325 400q0 -61 -44.5 -105.5t-105.5 -44.5t-105.5 44.5t-44.5 105.5t44.5 105.5t105.5 44.5t105.5 -44.5t44.5 -105.5z" />
    <glyph glyph-name="ellipsis" unicode="&#x2026;" horiz-adv-x="750" 
d="M725 100q0 -41 -29.5 -70.5t-70.5 -29.5t-70.5 29.5t-29.5 70.5t29.5 70.5t70.5 29.5t70.5 -29.5t29.5 -70.5zM475 100q0 -41 -29.5 -70.5t-70.5 -29.5t-70.5 29.5t-29.5 70.5t29.5 70.5t70.5 29.5t70.5 -29.5t29.5 -70.5zM225 100q0 -41 -29.5 -70.5t-70.5 -29.5
t-70.5 29.5t-29.5 70.5t29.5 70.5t70.5 29.5t70.5 -29.5t29.5 -70.5z" />
    <glyph glyph-name="perthousand" unicode="&#x2030;" horiz-adv-x="1432" 
d="M1407 200q0 -80 -60 -140t-140 -60t-140 60t-60 140t60 140t140 60t140 -60t60 -140zM987 200q0 -80 -60 -140t-140 -60t-140 60t-60 140t60 140t140 60t140 -60t60 -140zM737 742l-274 -752l-188 68l274 752zM425 600q0 -80 -60 -140t-140 -60t-140 60t-60 140t60 140
t140 60t140 -60t60 -140zM1282 200q0 30 -22.5 52.5t-52.5 22.5t-52.5 -22.5t-22.5 -52.5t22.5 -52.5t52.5 -22.5t52.5 22.5t22.5 52.5zM862 200q0 30 -22.5 52.5t-52.5 22.5t-52.5 -22.5t-22.5 -52.5t22.5 -52.5t52.5 -22.5t52.5 22.5t22.5 52.5zM300 600q0 30 -22.5 52.5
t-52.5 22.5t-52.5 -22.5t-22.5 -52.5t22.5 -52.5t52.5 -22.5t52.5 22.5t22.5 52.5z" />
    <glyph glyph-name="trademark" unicode="&#x2122;" horiz-adv-x="725" 
d="M700 400h-112v94l-66 -94l-66 94v-94h-112v206h-103v-206h-113v206h-103v94h431l66 -94l66 94h112v-300z" />
    </font>
</defs>
</svg>
