<?xml version="1.0" standalone="no"?>
<!DOCTYPE svg PUBLIC "-//W3C//DTD SVG 1.1//EN" "http://www.w3.org/Graphics/SVG/1.1/DTD/svg11.dtd" >
<svg xmlns="http://www.w3.org/2000/svg" xmlns:xlink="http://www.w3.org/1999/xlink" version="1.1">
<metadata>
Created by FontForge 20161013 at Tue Oct 21 19:15:34 2014
 By ,,,
Copyright GeronimoFonts 2014
A:u'SPACECRAFTA:u` is based on A:u'PinstripeA:u` by A:u'GeronimoFontsA:u` (http://fontstruct.com/fontstructors/geronimofonts)
</metadata>
<defs>
<font id="SPACECRAFT" horiz-adv-x="851" >
  <font-face 
    font-family="SPACECRAFT"
    font-weight="400"
    font-stretch="normal"
    units-per-em="1024"
    panose-1="0 0 4 0 0 0 0 0 0 0"
    ascent="1024"
    descent="0"
    x-height="1024"
    cap-height="1024"
    bbox="0 -256 1024 1152"
    underline-thickness="51"
    underline-position="26"
    unicode-range="U+0020-007A"
  />
<missing-glyph horiz-adv-x="1024" 
d="M512 145v163h-163v-163h163zM674 335v163h-325v-163h325zM512 525v163h-163v-163h163zM674 715v162h-162q-68 0 -115 -47q-48 -48 -48 -115h325zM0 0v1024h1024v-1024h-1024z" />
    <glyph glyph-name=".notdef" horiz-adv-x="1024" 
d="M512 145v163h-163v-163h163zM674 335v163h-325v-163h325zM512 525v163h-163v-163h163zM674 715v162h-162q-68 0 -115 -47q-48 -48 -48 -115h325zM0 0v1024h1024v-1024h-1024z" />
    <glyph glyph-name=".null" horiz-adv-x="0" 
 />
    <glyph glyph-name="nonmarkingreturn" horiz-adv-x="876" 
 />
    <glyph glyph-name="space" unicode=" " horiz-adv-x="876" 
 />
    <glyph glyph-name="exclam" unicode="!" horiz-adv-x="339" 
d="M0 0v256h256v-256h-256zM0 384v256h256v-256h-256zM0 768v256h256v-256h-256z" />
    <glyph glyph-name="numbersign" unicode="#" horiz-adv-x="979" 
d="M512 512v128h-128v-128h128zM128 0v256h-128v256h128v128h-128v256h128v128h256v-128h128v128h256v-128h128v-256h-128v-128h128v-256h-128v-256h-256v256h-128v-256h-256z" />
    <glyph glyph-name="dollar" unicode="$" 
d="M256 -128v128h-256v256h448q26 0 45 18q19 19 19 46q0 26 -19 45t-45 19h-320q-54 0 -91 37q-37 38 -37 91v384q0 53 37 90q38 38 91 38h128v128h256v-128h256v-256h-448q-27 0 -46 -19q-18 -19 -18 -45q0 -27 18 -46q19 -18 46 -18h320q53 0 90 -38q38 -38 38 -90v-384
q0 -54 -38 -91t-90 -37h-128v-128h-256z" />
    <glyph glyph-name="ampersand" unicode="&#x26;" horiz-adv-x="979" 
d="M128 0q-54 0 -91 37q-37 38 -37 91v256q0 53 37 90q38 38 91 38q-54 0 -91 37q-37 38 -37 91h384v-256h-128v-64q0 -27 18 -46q19 -18 46 -18h192v384h128l256 -256h-128v-256q0 -54 -38 -91t-90 -37h-512zM0 768v128q0 53 37 90q38 38 91 38h640l-256 -256h-512z" />
    <glyph glyph-name="plus" unicode="+" 
d="M256 128v256h-256v256h256l256 256v-256h256v-256h-256z" />
    <glyph glyph-name="comma" unicode="," horiz-adv-x="339" 
d="M128 -128v128q-54 0 -91 37q-37 38 -37 91t37 90q38 38 91 38t90 -38q38 -38 38 -90v-256h-128z" />
    <glyph glyph-name="hyphen" unicode="-" 
d="M0 384v256h768l-256 -256h-512z" />
    <glyph glyph-name="period" unicode="." horiz-adv-x="339" 
d="M0 0v256h256v-256h-256z" />
    <glyph glyph-name="question" unicode="?" 
d="M256 0v256h256v-256h-256zM256 384v256h512v-128q0 -54 -38 -91t-90 -37h-384zM256 768l-256 256h640q53 0 90 -38q38 -38 38 -90v-128h-512z" />
    <glyph glyph-name="A" unicode="A" 
d="M0 0v640h768v-384l-256 -256v384h-256v-128zM0 768v128q0 53 37 90q38 38 91 38h512q53 0 90 -38q38 -38 38 -90v-128h-768z" />
    <glyph glyph-name="B" unicode="B" 
d="M448 256q26 0 45 18q19 19 19 46q0 26 -19 45t-45 19h-192v-128h192zM0 0v640h768q0 -54 -38 -91t-90 -37q53 0 90 -38q38 -38 38 -90v-256q0 -54 -38 -91t-90 -37h-640zM0 768l256 256h384q53 0 90 -38q38 -38 38 -90v-128h-768z" />
    <glyph glyph-name="C" unicode="C" 
d="M128 0q-54 0 -91 37q-37 38 -37 91v512h256v-320q0 -27 18 -46q19 -18 46 -18h448v-256h-640zM0 768v128q0 53 37 90q38 38 91 38h640l-256 -256h-512z" />
    <glyph glyph-name="D" unicode="D" 
d="M0 0v640h256v-320q0 -27 18 -46q19 -18 46 -18h128q26 0 45 18q19 19 19 46v320h256v-512q0 -54 -38 -91t-90 -37h-640zM256 768l-256 256h640q53 0 90 -38q38 -38 38 -90v-128h-512z" />
    <glyph glyph-name="E" unicode="E" 
d="M0 0v640h640l-256 -256h-128v-128h512v-256h-768zM0 768v256h768l-256 -256h-512z" />
    <glyph glyph-name="F" unicode="F" 
d="M0 0v640h640l-256 -256h-128v-384h-256zM0 768v256h768l-256 -256h-512z" />
    <glyph glyph-name="G" unicode="G" 
d="M128 0q-54 0 -91 37q-37 38 -37 91v512h256v-320q0 -27 18 -46q19 -18 46 -18h192v384h256v-640h-640zM0 768v128q0 53 37 90q38 38 91 38h640l-256 -256h-512z" />
    <glyph glyph-name="H" unicode="H" 
d="M0 0v640h768v-384l-256 -256v384h-256v-128zM0 768v256h256v-256h-256zM512 768v256h256v-256h-256z" />
    <glyph glyph-name="I" unicode="I" 
d="M0 0v256h256v384h256v-384h256l-256 -256h-512zM0 768v256h768l-256 -256h-512z" />
    <glyph glyph-name="J" unicode="J" 
d="M128 0q-54 0 -91 37q-37 38 -37 91v128l256 256v-192q0 -27 18 -46q19 -18 46 -18h128q26 0 45 18q19 19 19 46v64l256 256v-512q0 -54 -38 -91t-90 -37h-512zM256 768v256h512v-256h-512z" />
    <glyph glyph-name="K" unicode="K" 
d="M0 0v640h256v-640h-256zM512 0l-256 512l64 128h256l-64 -128l256 -512h-256zM0 768v256h256v-256h-256zM384 768l128 256h256l-128 -256h-256z" />
    <glyph glyph-name="L" unicode="L" 
d="M0 0v640h256v-384h256l256 -256h-768zM0 768v256h256v-256h-256z" />
    <glyph glyph-name="M" unicode="M" horiz-adv-x="1107" 
d="M0 0v640h256v-384zM512 128l-256 512h512zM768 0v640h256v-384zM0 768v256h320l128 -256h-448zM576 768l128 256h320v-256h-448z" />
    <glyph glyph-name="N" unicode="N" 
d="M0 0v640h448l64 -128v128h256v-640h-256l-256 512v-256zM0 768v256h256l128 -256h-384zM512 768l256 256v-256h-256z" />
    <glyph glyph-name="O" unicode="O" 
d="M128 0q-54 0 -91 37q-37 38 -37 91v512h256v-320q0 -27 18 -46q19 -18 46 -18h128q26 0 45 18q19 19 19 46v320h256v-512q0 -54 -38 -91t-90 -37h-512zM0 768v128q0 53 37 90q38 38 91 38h512q53 0 90 -38q38 -38 38 -90v-128h-768z" />
    <glyph glyph-name="P" unicode="P" 
d="M0 0v640h768v-128q0 -54 -38 -91t-90 -37h-384v-128zM256 768l-256 256h640q53 0 90 -38q38 -38 38 -90v-128h-512z" />
    <glyph glyph-name="Q" unicode="Q" 
d="M256 -256v256h-128q-54 0 -91 37q-37 38 -37 91v256l256 256v-320q0 -27 18 -46q19 -18 46 -18h128q26 0 45 18q19 19 19 46v320h256v-512q0 -54 -38 -91t-90 -37h-128zM0 768v128q0 53 37 90q38 38 91 38h512q53 0 90 -38q38 -38 38 -90v-128h-768z" />
    <glyph glyph-name="R" unicode="R" 
d="M0 0v640h768v-128q0 -54 -38 -91t-90 -37h-64l192 -384h-256l-192 384h-64v-384h-256zM256 768l-256 256h640q53 0 90 -38q38 -38 38 -90v-128h-512z" />
    <glyph glyph-name="S" unicode="S" 
d="M0 0l256 256h192q26 0 45 18q19 19 19 46q0 26 -19 45t-45 19h-320q-54 0 -91 37q-37 38 -37 91v128h640q53 0 90 -38q38 -38 38 -90v-384q0 -54 -38 -91t-90 -37h-640zM0 768v128q0 53 37 90q38 38 91 38h640l-256 -256h-512z" />
    <glyph glyph-name="T" unicode="T" 
d="M256 0v640h256v-640h-256zM0 768v256h768l-256 -256h-512z" />
    <glyph glyph-name="U" unicode="U" 
d="M128 0q-54 0 -91 37q-37 38 -37 91v512h256v-320q0 -27 18 -46q19 -18 46 -18h128q26 0 45 18q19 19 19 46v320h256v-512q0 -54 -38 -91t-90 -37h-512zM0 768v256h256v-256h-256zM512 768l256 256v-256h-256z" />
    <glyph glyph-name="V" unicode="V" 
d="M320 0l-320 640h256l128 -256l128 256h256l-320 -640h-128zM0 768v256l256 -256h-256zM512 768l256 256v-256h-256z" />
    <glyph glyph-name="W" unicode="W" horiz-adv-x="1107" 
d="M0 0v640h256v-256l128 256h256l128 -256v256h256v-640h-320l-192 384l-192 -384h-320zM448 768l64 128l64 -128h-128zM0 768v256l256 -256h-256zM768 768v256l256 -256h-256z" />
    <glyph glyph-name="X" unicode="X" 
d="M0 0l256 512l-64 128h384l-64 -128l256 -512h-256l-128 256l-128 -256h-256zM128 768l-128 256h256l128 -256h-256zM384 768l128 256h256l-128 -256h-256z" />
    <glyph glyph-name="Y" unicode="Y" 
d="M256 0v512l-64 128h384l-64 -128v-256zM128 768l-128 256h256l128 -256h-256zM384 768l128 256h256l-128 -256h-256z" />
    <glyph glyph-name="Z" unicode="Z" 
d="M0 0l320 640h256l-192 -384h384v-256h-768zM0 768v256h768l-128 -256h-640z" />
    <glyph glyph-name="a" unicode="a" 
d="M0 0v640h768v-384l-256 -256v384h-256v-128zM0 768v128q0 53 37 90q38 38 91 38h512q53 0 90 -38q38 -38 38 -90v-128h-768z" />
    <glyph glyph-name="b" unicode="b" 
d="M448 256q26 0 45 18q19 19 19 46q0 26 -19 45t-45 19h-192v-128h192zM0 0v640h768q0 -54 -38 -91t-90 -37q53 0 90 -38q38 -38 38 -90v-256q0 -54 -38 -91t-90 -37h-640zM0 768l256 256h384q53 0 90 -38q38 -38 38 -90v-128h-768z" />
    <glyph glyph-name="c" unicode="c" 
d="M128 0q-54 0 -91 37q-37 38 -37 91v512h256v-320q0 -27 18 -46q19 -18 46 -18h448v-256h-640zM0 768v128q0 53 37 90q38 38 91 38h640l-256 -256h-512z" />
    <glyph glyph-name="d" unicode="d" 
d="M0 0v640h256v-320q0 -27 18 -46q19 -18 46 -18h128q26 0 45 18q19 19 19 46v320h256v-512q0 -54 -38 -91t-90 -37h-640zM256 768l-256 256h640q53 0 90 -38q38 -38 38 -90v-128h-512z" />
    <glyph glyph-name="e" unicode="e" 
d="M0 0v640h640l-256 -256h-128v-128h512v-256h-768zM0 768v256h768l-256 -256h-512z" />
    <glyph glyph-name="f" unicode="f" 
d="M0 0v640h640l-256 -256h-128v-384h-256zM0 768v256h768l-256 -256h-512z" />
    <glyph glyph-name="g" unicode="g" 
d="M128 0q-54 0 -91 37q-37 38 -37 91v512h256v-320q0 -27 18 -46q19 -18 46 -18h192v384h256v-640h-640zM0 768v128q0 53 37 90q38 38 91 38h640l-256 -256h-512z" />
    <glyph glyph-name="h" unicode="h" 
d="M0 0v640h768v-384l-256 -256v384h-256v-128zM0 768v256h256v-256h-256zM512 768v256h256v-256h-256z" />
    <glyph glyph-name="i" unicode="i" 
d="M0 0v256h256v384h256v-384h256l-256 -256h-512zM0 768v256h768l-256 -256h-512z" />
    <glyph glyph-name="j" unicode="j" 
d="M128 0q-54 0 -91 37q-37 38 -37 91v128l256 256v-192q0 -27 18 -46q19 -18 46 -18h128q26 0 45 18q19 19 19 46v64l256 256v-512q0 -54 -38 -91t-90 -37h-512zM256 768v256h512v-256h-512z" />
    <glyph glyph-name="k" unicode="k" 
d="M0 0v640h256v-640h-256zM512 0l-256 512l64 128h256l-64 -128l256 -512h-256zM0 768v256h256v-256h-256zM384 768l128 256h256l-128 -256h-256z" />
    <glyph glyph-name="l" unicode="l" 
d="M0 0v640h256v-384h256l256 -256h-768zM0 768v256h256v-256h-256z" />
    <glyph glyph-name="m" unicode="m" horiz-adv-x="1107" 
d="M0 0v640h256v-384zM512 128l-256 512h512zM768 0v640h256v-384zM0 768v256h320l128 -256h-448zM576 768l128 256h320v-256h-448z" />
    <glyph glyph-name="n" unicode="n" 
d="M0 0v640h448l64 -128v128h256v-640h-256l-256 512v-256zM0 768v256h256l128 -256h-384zM512 768l256 256v-256h-256z" />
    <glyph glyph-name="o" unicode="o" 
d="M128 0q-54 0 -91 37q-37 38 -37 91v512h256v-320q0 -27 18 -46q19 -18 46 -18h128q26 0 45 18q19 19 19 46v320h256v-512q0 -54 -38 -91t-90 -37h-512zM0 768v128q0 53 37 90q38 38 91 38h512q53 0 90 -38q38 -38 38 -90v-128h-768z" />
    <glyph glyph-name="p" unicode="p" 
d="M0 0v640h768v-128q0 -54 -38 -91t-90 -37h-384v-128zM256 768l-256 256h640q53 0 90 -38q38 -38 38 -90v-128h-512z" />
    <glyph glyph-name="q" unicode="q" 
d="M256 -256v256h-128q-54 0 -91 37q-37 38 -37 91v256l256 256v-320q0 -27 18 -46q19 -18 46 -18h128q26 0 45 18q19 19 19 46v320h256v-512q0 -54 -38 -91t-90 -37h-128zM0 768v128q0 53 37 90q38 38 91 38h512q53 0 90 -38q38 -38 38 -90v-128h-768z" />
    <glyph glyph-name="r" unicode="r" 
d="M0 0v640h768v-128q0 -54 -38 -91t-90 -37h-64l192 -384h-256l-192 384h-64v-384h-256zM256 768l-256 256h640q53 0 90 -38q38 -38 38 -90v-128h-512z" />
    <glyph glyph-name="s" unicode="s" 
d="M0 0l256 256h192q26 0 45 18q19 19 19 46q0 26 -19 45t-45 19h-320q-54 0 -91 37q-37 38 -37 91v128h640q53 0 90 -38q38 -38 38 -90v-384q0 -54 -38 -91t-90 -37h-640zM0 768v128q0 53 37 90q38 38 91 38h640l-256 -256h-512z" />
    <glyph glyph-name="t" unicode="t" 
d="M256 0v640h256v-640h-256zM0 768v256h768l-256 -256h-512z" />
    <glyph glyph-name="u" unicode="u" 
d="M128 0q-54 0 -91 37q-37 38 -37 91v512h256v-320q0 -27 18 -46q19 -18 46 -18h128q26 0 45 18q19 19 19 46v320h256v-512q0 -54 -38 -91t-90 -37h-512zM0 768v256h256v-256h-256zM512 768l256 256v-256h-256z" />
    <glyph glyph-name="v" unicode="v" 
d="M320 0l-320 640h256l128 -256l128 256h256l-320 -640h-128zM0 768v256l256 -256h-256zM512 768l256 256v-256h-256z" />
    <glyph glyph-name="w" unicode="w" horiz-adv-x="1107" 
d="M0 0v640h256v-256l128 256h256l128 -256v256h256v-640h-320l-192 384l-192 -384h-320zM448 768l64 128l64 -128h-128zM0 768v256l256 -256h-256zM768 768v256l256 -256h-256z" />
    <glyph glyph-name="x" unicode="x" 
d="M0 0l256 512l-64 128h384l-64 -128l256 -512h-256l-128 256l-128 -256h-256zM128 768l-128 256h256l128 -256h-256zM384 768l128 256h256l-128 -256h-256z" />
    <glyph glyph-name="y" unicode="y" 
d="M256 0v512l-64 128h384l-64 -128v-256zM128 768l-128 256h256l128 -256h-256zM384 768l128 256h256l-128 -256h-256z" />
    <glyph glyph-name="z" unicode="z" 
d="M0 0l320 640h256l-192 -384h384v-256h-768zM0 768v256h768l-128 -256h-640z" />
    <glyph glyph-name="NULL" horiz-adv-x="0" 
 />
  </font>
</defs>
</svg>
